{
  "accessors": [
    {
      "bufferView": 2,
      "componentType": 5126,
      "count": 114,
      "max": [
        23.380081176757813,
        4.700953960418701,
        1.0894110202789307
      ],
      "min": [
        -22.605621337890625,
        -30.67145347595215,
        0.15435899794101715
      ],
      "type": "VEC3"
    },
    {
      "bufferView": 2,
      "byteOffset": 1368,
      "componentType": 5126,
      "count": 114,
      "max": [
        1.0,
        1.0,
        1.0
      ],
      "min": [
        -1.0,
        -1.0,
        -1.0
      ],
      "type": "VEC3"
    },
    {
      "bufferView": 3,
      "componentType": 5126,
      "count": 114,
      "max": [
        5.820363639941206e-06,
        3.1296751785703236e-06,
        0.0,
        1.0
      ],
      "min": [
        -5.820356818730943e-06,
        -1.0,
        -1.0,
        1.0
      ],
      "type": "VEC4"
    },
    {
      "bufferView": 1,
      "componentType": 5126,
      "count": 114,
      "max": [
        0.9666810035705566,
        0.9637770056724548
      ],
      "min": [
        0.0,
        0.0
      ],
      "type": "VEC2"
    },
    {
      "bufferView": 0,
      "componentType": 5125,
      "count": 384,
      "type": "SCALAR"
    },
    {
      "bufferView": 2,
      "byteOffset": 2736,
      "componentType": 5126,
      "count": 214,
      "max": [
        18.072921752929688,
        -3.766350030899048,
        12.860130310058594
      ],
      "min": [
        14.615583419799805,
        -5.5461859703063965,
        9.970717430114746
      ],
      "type": "VEC3"
    },
    {
      "bufferView": 2,
      "byteOffset": 5304,
      "componentType": 5126,
      "count": 214,
      "max": [
        1.0,
        0.8901821374893188,
        1.0
      ],
      "min": [
        -1.0,
        -1.0,
        -1.0
      ],
      "type": "VEC3"
    },
    {
      "bufferView": 3,
      "byteOffset": 1824,
      "componentType": 5126,
      "count": 214,
      "max": [
        0.7511665225028992,
        1.0,
        0.9942207336425781,
        1.0
      ],
      "min": [
        -0.8841265439987183,
        -1.0,
        -1.0,
        -1.0
      ],
      "type": "VEC4"
    },
    {
      "bufferView": 1,
      "byteOffset": 912,
      "componentType": 5126,
      "count": 214,
      "max": [
        0.9311569929122925,
        1.0
      ],
      "min": [
        0.03279799968004227,
        0.5677160024642944
      ],
      "type": "VEC2"
    },
    {
      "bufferView": 0,
      "byteOffset": 1536,
      "componentType": 5125,
      "count": 474,
      "type": "SCALAR"
    },
    {
      "bufferView": 2,
      "byteOffset": 7872,
      "componentType": 5126,
      "count": 4923,
      "max": [
        23.401081085205078,
        3.5619289875030518,
        21.58258819580078
      ],
      "min": [
        -22.681913375854492,
        -9.009658813476563,
        1.0945550203323364
      ],
      "type": "VEC3"
    },
    {
      "bufferView": 2,
      "byteOffset": 66948,
      "componentType": 5126,
      "count": 4923,
      "max": [
        1.0,
        1.0,
        1.0
      ],
      "min": [
        -1.0,
        -1.0,
        -1.0
      ],
      "type": "VEC3"
    },
    {
      "bufferView": 3,
      "byteOffset": 5248,
      "componentType": 5126,
      "count": 4923,
      "max": [
        1.0,
        1.0,
        1.0,
        1.0
      ],
      "min": [
        -1.0,
        -1.0,
        -1.0,
        1.0
      ],
      "type": "VEC4"
    },
    {
      "bufferView": 1,
      "byteOffset": 2624,
      "componentType": 5126,
      "count": 4923,
      "max": [
        0.979889988899231,
        0.9755210280418396
      ],
      "min": [
        -0.0,
        0.0
      ],
      "type": "VEC2"
    },
    {
      "bufferView": 0,
      "byteOffset": 3432,
      "componentType": 5125,
      "count": 14400,
      "type": "SCALAR"
    },
    {
      "bufferView": 2,
      "byteOffset": 126024,
      "componentType": 5126,
      "count": 11716,
      "max": [
        23.120159149169922,
        -3.56569504737854,
        21.553966522216797
      ],
      "min": [
        -22.375791549682617,
        -8.006410598754883,
        1.5929919481277466
      ],
      "type": "VEC3"
    },
    {
      "bufferView": 2,
      "byteOffset": 266616,
      "componentType": 5126,
      "count": 11716,
      "max": [
        0.9460404515266418,
        1.0,
        0.994192898273468
      ],
      "min": [
        -0.9755918979644775,
        -1.0,
        -0.9811829924583435
      ],
      "type": "VEC3"
    },
    {
      "bufferView": 3,
      "byteOffset": 84016,
      "componentType": 5126,
      "count": 11716,
      "max": [
        0.8464738130569458,
        1.0,
        0.9990981817245483,
        1.0
      ],
      "min": [
        -0.9993730187416077,
        -1.0,
        -0.9975333213806152,
        1.0
      ],
      "type": "VEC4"
    },
    {
      "bufferView": 1,
      "byteOffset": 42008,
      "componentType": 5126,
      "count": 11716,
      "max": [
        0.9372339844703674,
        0.977607011795044
      ],
      "min": [
        -0.0,
        0.7114539742469788
      ],
      "type": "VEC2"
    },
    {
      "bufferView": 0,
      "byteOffset": 61032,
      "componentType": 5125,
      "count": 29646,
      "type": "SCALAR"
    }
  ],
  "asset": {
    "extras": {
      "author": "AJ (https://sketchfab.com/ArneJans)",
      "license": "CC-BY-4.0 (http://creativecommons.org/licenses/by/4.0/)",
      "source": "https://sketchfab.com/3d-models/bank-vault-7d53bf4f961245c8bfa5f24c865f413f",
      "title": "Bank Vault"
    },
    "generator": "Sketchfab-16.14.0",
    "version": "2.0"
  },
  "bufferViews": [
    {
      "buffer": 0,
      "byteLength": 179616,
      "name": "floatBufferViews",
      "target": 34963
    },
    {
      "buffer": 0,
      "byteLength": 135736,
      "byteOffset": 179616,
      "byteStride": 8,
      "name": "floatBufferViews",
      "target": 34962
    },
    {
      "buffer": 0,
      "byteLength": 407208,
      "byteOffset": 315352,
      "byteStride": 12,
      "name": "floatBufferViews",
      "target": 34962
    },
    {
      "buffer": 0,
      "byteLength": 271472,
      "byteOffset": 722560,
      "byteStride": 16,
      "name": "floatBufferViews",
      "target": 34962
    }
  ],
  "buffers": [
    {
      "byteLength": 994032,
      "uri": "ene.bin"
    }
  ],
  "images": [
    {
      "uri": "textures/Bolts_baseColor.jpeg"
    },
    {
      "uri": "textures/Bolts_metallicRoughness.png"
    },
    {
      "uri": "textures/Bolts_normal.png"
    },
    {
      "uri": "textures/Vault_baseColor.jpeg"
    },
    {
      "uri": "textures/Vault_metallicRoughness.png"
    },
    {
      "uri": "textures/Vault_normal.png"
    },
    {
      "uri": "textures/Handscanner_baseColor.jpeg"
    },
    {
      "uri": "textures/Handscanner_metallicRoughness.png"
    },
    {
      "uri": "textures/Handscanner_emissive.jpeg"
    },
    {
      "uri": "textures/Handscanner_normal.png"
    },
    {
      "uri": "textures/Floor_baseColor.jpeg"
    },
    {
      "uri": "textures/Floor_metallicRoughness.png"
    },
    {
      "uri": "textures/Floor_normal.png"
    }
  ],
  "materials": [
    {
      "doubleSided": true,
      "name": "Bolts",
      "normalTexture": {
        "index": 2
      },
      "occlusionTexture": {
        "index": 1
      },
      "pbrMetallicRoughness": {
        "baseColorTexture": {
          "index": 0
        },
        "metallicRoughnessTexture": {
          "index": 1
        }
      }
    },
    {
      "doubleSided": true,
      "name": "Vault",
      "normalTexture": {
        "index": 5
      },
      "occlusionTexture": {
        "index": 4
      },
      "pbrMetallicRoughness": {
        "baseColorTexture": {
          "index": 3
        },
        "metallicRoughnessTexture": {
          "index": 4
        }
      }
    },
    {
      "doubleSided": true,
      "emissiveFactor": [
        1.0,
        1.0,
        1.0
      ],
      "emissiveTexture": {
        "index": 8
      },
      "name": "Handscanner",
      "normalTexture": {
        "index": 9
      },
      "occlusionTexture": {
        "index": 7
      },
      "pbrMetallicRoughness": {
        "baseColorTexture": {
          "index": 6
        },
        "metallicRoughnessTexture": {
          "index": 7
        }
      }
    },
    {
      "doubleSided": true,
      "name": "Floor",
      "normalTexture": {
        "index": 12
      },
      "occlusionTexture": {
        "index": 11
      },
      "pbrMetallicRoughness": {
        "baseColorTexture": {
          "index": 10
        },
        "metallicRoughnessTexture": {
          "index": 11
        }
      }
    }
  ],
  "meshes": [
    {
      "name": "defaultMaterial",
      "primitives": [
        {
          "attributes": {
            "NORMAL": 1,
            "POSITION": 0,
            "TANGENT": 2,
            "TEXCOORD_0": 3
          },
          "indices": 4,
          "material": 3,
          "mode": 4
        }
      ]
    },
    {
      "name": "defaultMaterial",
      "primitives": [
        {
          "attributes": {
            "NORMAL": 6,
            "POSITION": 5,
            "TANGENT": 7,
            "TEXCOORD_0": 8
          },
          "indices": 9,
          "material": 2,
          "mode": 4
        }
      ]
    },
    {
      "name": "defaultMaterial",
      "primitives": [
        {
          "attributes": {
            "NORMAL": 11,
            "POSITION": 10,
            "TANGENT": 12,
            "TEXCOORD_0": 13
          },
          "indices": 14,
          "material": 1,
          "mode": 4
        }
      ]
    },
    {
      "name": "defaultMaterial",
      "primitives": [
        {
          "attributes": {
            "NORMAL": 16,
            "POSITION": 15,
            "TANGENT": 17,
            "TEXCOORD_0": 18
          },
          "indices": 19,
          "material": 0,
          "mode": 4
        }
      ]
    }
  ],
  "nodes": [
    {
      "children": [
        1
      ],
      "matrix": [
        1.0,
        0.0,
        0.0,
        0.0,
        0.0,
        2.220446049250313e-16,
        -1.0,
        0.0,
        0.0,
        1.0,
        2.220446049250313e-16,
        0.0,
        0.0,
        0.0,
        0.0,
        1.0
      ],
      "name": "Sketchfab_model"
    },
    {
      "children": [
        2,
        4,
        6,
        8
      ],
      "matrix": [
        1.0,
        0.0,
        0.0,
        0.0,
        0.0,
        -4.371139006309477e-08,
        0.999999999999999,
        0.0,
        0.0,
        -0.999999999999999,
        -4.371139006309477e-08,
        0.0,
        0.0,
        0.0,
        0.0,
        1.0
      ],
      "name": "Collada visual scene group"
    },
    {
      "children": [
        3
      ],
      "matrix": [
        28.074715,
        0.0,
        0.0,
        0.0,
        0.0,
        -5e-06,
        -28.074715,
        0.0,
        0.0,
        40.037281,
        -7e-06,
        0.0,
        0.0,
        1e-06,
        -2.4e-05,
        1.0
      ],
      "name": "Floor"
    },
    {
      "mesh": 0,
      "name": "defaultMaterial"
    },
    {
      "children": [
        5
      ],
      "matrix": [
        28.074715,
        0.0,
        0.0,
        0.0,
        0.0,
        -5e-06,
        -28.074715,
        0.0,
        0.0,
        40.037281,
        -7e-06,
        0.0,
        0.0,
        0.0,
        0.0,
        1.0
      ],
      "name": "HandScanner"
    },
    {
      "mesh": 1,
      "name": "defaultMaterial"
    },
    {
      "children": [
        7
      ],
      "matrix": [
        28.074715,
        0.0,
        0.0,
        0.0,
        0.0,
        -5e-06,
        -28.074715,
        0.0,
        0.0,
        40.037281,
        -7e-06,
        0.0,
        0.0,
        0.0,
        0.0,
        1.0
      ],
      "name": "Vault"
    },
    {
      "mesh": 2,
      "name": "defaultMaterial"
    },
    {
      "children": [
        9
      ],
      "matrix": [
        28.074715,
        0.0,
        0.0,
        0.0,
        0.0,
        -5e-06,
        -28.074715,
        0.0,
        0.0,
        40.037281,
        -7e-06,
        0.0,
        0.0,
        -4.8e-05,
        0.0,
        1.0
      ],
      "name": "Bolts"
    },
    {
      "mesh": 3,
      "name": "defaultMaterial"
    }
  ],
  "samplers": [
    {
      "magFilter": 9729,
      "minFilter": 9987,
      "wrapS": 10497,
      "wrapT": 10497
    }
  ],
  "scene": 0,
  "scenes": [
    {
      "name": "Sketchfab_Scene",
      "nodes": [
        0
      ]
    }
  ],
  "textures": [
    {
      "sampler": 0,
      "source": 0
    },
    {
      "sampler": 0,
      "source": 1
    },
    {
      "sampler": 0,
      "source": 2
    },
    {
      "sampler": 0,
      "source": 3
    },
    {
      "sampler": 0,
      "source": 4
    },
    {
      "sampler": 0,
      "source": 5
    },
    {
      "sampler": 0,
      "source": 6
    },
    {
      "sampler": 0,
      "source": 7
    },
    {
      "sampler": 0,
      "source": 8
    },
    {
      "sampler": 0,
      "source": 9
    },
    {
      "sampler": 0,
      "source": 10
    },
    {
      "sampler": 0,
      "source": 11
    },
    {
      "sampler": 0,
      "source": 12
    }
  ]
}
